<mxfile host="Electron" agent="Mozilla/5.0 (Windows NT 10.0; Win64; x64) AppleWebKit/537.36 (KHTML, like Gecko) draw.io/24.7.17 Chrome/128.0.6613.36 Electron/32.0.1 Safari/537.36" version="24.7.17">
  <diagram name="Pagina-1" id="yUCQgROJCq4mh6lARDEO">
    <mxGraphModel dx="1651" dy="709" grid="1" gridSize="10" guides="1" tooltips="1" connect="1" arrows="1" fold="1" page="1" pageScale="1" pageWidth="827" pageHeight="1169" math="0" shadow="0">
      <root>
        <mxCell id="0" />
        <mxCell id="1" parent="0" />
        <mxCell id="Yi_f9LWQrYLCisY741Na-1" value="" style="strokeWidth=1;shadow=0;dashed=0;align=center;html=1;shape=mxgraph.mockup.containers.browserWindow;rSize=0;strokeColor=#666666;strokeColor2=#008cff;strokeColor3=#c4c4c4;mainText=,;recursiveResize=0;" vertex="1" parent="1">
          <mxGeometry x="70" y="140" width="1060" height="690" as="geometry" />
        </mxCell>
        <mxCell id="Yi_f9LWQrYLCisY741Na-2" value="Page 1" style="strokeWidth=1;shadow=0;dashed=0;align=center;html=1;shape=mxgraph.mockup.containers.anchor;fontSize=17;fontColor=#666666;align=left;whiteSpace=wrap;" vertex="1" parent="Yi_f9LWQrYLCisY741Na-1">
          <mxGeometry x="60" y="12" width="110" height="26" as="geometry" />
        </mxCell>
        <mxCell id="Yi_f9LWQrYLCisY741Na-3" value="https://www.mypersonaldriver/users/{idUser}/rides/{idRide}/reports" style="strokeWidth=1;shadow=0;dashed=0;align=center;html=1;shape=mxgraph.mockup.containers.anchor;rSize=0;fontSize=17;fontColor=#666666;align=left;" vertex="1" parent="Yi_f9LWQrYLCisY741Na-1">
          <mxGeometry x="130" y="60" width="250" height="26" as="geometry" />
        </mxCell>
        <mxCell id="Yi_f9LWQrYLCisY741Na-88" value="" style="endArrow=none;html=1;rounded=0;entryX=1;entryY=0.261;entryDx=0;entryDy=0;entryPerimeter=0;" edge="1" parent="Yi_f9LWQrYLCisY741Na-1">
          <mxGeometry width="50" height="50" relative="1" as="geometry">
            <mxPoint y="190" as="sourcePoint" />
            <mxPoint x="1059.9999999999995" y="190.08999999999992" as="targetPoint" />
          </mxGeometry>
        </mxCell>
        <mxCell id="Yi_f9LWQrYLCisY741Na-89" value="" style="shape=mxgraph.signs.transportation.car_4;html=1;pointerEvents=1;fillColor=#000000;strokeColor=none;verticalLabelPosition=bottom;verticalAlign=top;align=center;" vertex="1" parent="Yi_f9LWQrYLCisY741Na-1">
          <mxGeometry x="10" y="120" width="70" height="60" as="geometry" />
        </mxCell>
        <mxCell id="Yi_f9LWQrYLCisY741Na-90" value="Home" style="strokeWidth=1;shadow=0;dashed=0;align=center;html=1;shape=mxgraph.mockup.buttons.button;strokeColor=#666666;fontColor=#ffffff;mainText=;buttonStyle=round;fontSize=17;fontStyle=1;fillColor=#008cff;whiteSpace=wrap;" vertex="1" parent="Yi_f9LWQrYLCisY741Na-1">
          <mxGeometry x="130" y="127.5" width="120" height="45" as="geometry" />
        </mxCell>
        <mxCell id="Yi_f9LWQrYLCisY741Na-91" value="Corse" style="strokeWidth=1;shadow=0;dashed=0;align=center;html=1;shape=mxgraph.mockup.buttons.button;strokeColor=#666666;fontColor=#ffffff;mainText=;buttonStyle=round;fontSize=17;fontStyle=1;fillColor=#008cff;whiteSpace=wrap;" vertex="1" parent="Yi_f9LWQrYLCisY741Na-1">
          <mxGeometry x="330" y="125" width="150" height="50" as="geometry" />
        </mxCell>
        <mxCell id="Yi_f9LWQrYLCisY741Na-92" value="&lt;span style=&quot;font-size: 36px;&quot;&gt;&lt;b&gt;Richiedi assistenza&lt;/b&gt;&lt;/span&gt;" style="text;html=1;align=center;verticalAlign=middle;whiteSpace=wrap;rounded=0;" vertex="1" parent="Yi_f9LWQrYLCisY741Na-1">
          <mxGeometry x="470" y="190" width="350" height="80" as="geometry" />
        </mxCell>
        <mxCell id="Yi_f9LWQrYLCisY741Na-15" value="From" style="strokeWidth=1;shadow=0;dashed=0;align=center;html=1;shape=mxgraph.mockup.forms.anchor;align=right;spacingRight=2;fontColor=#666666;" vertex="1" parent="Yi_f9LWQrYLCisY741Na-1">
          <mxGeometry x="150" y="315" width="50" height="18" as="geometry" />
        </mxCell>
        <mxCell id="Yi_f9LWQrYLCisY741Na-16" value="a.maftei@alfasoft.it" style="strokeWidth=1;shadow=0;dashed=0;align=center;html=1;shape=mxgraph.mockup.forms.rrect;fillColor=#ffffff;rSize=0;fontColor=#666666;align=left;spacingLeft=3;strokeColor=#999999;" vertex="1" parent="Yi_f9LWQrYLCisY741Na-1">
          <mxGeometry x="200" y="315" width="350" height="18" as="geometry" />
        </mxCell>
        <mxCell id="Yi_f9LWQrYLCisY741Na-17" value="Report type" style="strokeWidth=1;shadow=0;dashed=0;align=center;html=1;shape=mxgraph.mockup.forms.anchor;align=right;spacingRight=2;fontColor=#666666;" vertex="1" parent="Yi_f9LWQrYLCisY741Na-1">
          <mxGeometry x="150" y="350" width="50" height="18" as="geometry" />
        </mxCell>
        <mxCell id="Yi_f9LWQrYLCisY741Na-18" value="Choose a report" style="strokeWidth=1;shadow=0;dashed=0;align=center;html=1;shape=mxgraph.mockup.forms.rrect;fillColor=#ffffff;rSize=0;fontColor=#666666;align=left;spacingLeft=3;strokeColor=#999999;" vertex="1" parent="Yi_f9LWQrYLCisY741Na-1">
          <mxGeometry x="200" y="350" width="350" height="18" as="geometry" />
        </mxCell>
        <mxCell id="Yi_f9LWQrYLCisY741Na-19" value="Ride code" style="strokeWidth=1;shadow=0;dashed=0;align=center;html=1;shape=mxgraph.mockup.forms.anchor;align=right;spacingRight=2;fontColor=#666666;" vertex="1" parent="Yi_f9LWQrYLCisY741Na-1">
          <mxGeometry x="150" y="385" width="50" height="18" as="geometry" />
        </mxCell>
        <mxCell id="Yi_f9LWQrYLCisY741Na-20" value="00000" style="strokeWidth=1;shadow=0;dashed=0;align=center;html=1;shape=mxgraph.mockup.forms.rrect;fillColor=#ffffff;rSize=0;fontColor=#666666;align=left;spacingLeft=3;strokeColor=#999999;" vertex="1" parent="Yi_f9LWQrYLCisY741Na-1">
          <mxGeometry x="200" y="385" width="350" height="18" as="geometry" />
        </mxCell>
        <mxCell id="Yi_f9LWQrYLCisY741Na-21" value="Add a picture" style="strokeWidth=1;shadow=0;dashed=0;align=center;html=1;shape=mxgraph.mockup.forms.anchor;align=right;spacingRight=2;fontColor=#666666;" vertex="1" parent="Yi_f9LWQrYLCisY741Na-1">
          <mxGeometry x="150" y="420" width="50" height="18" as="geometry" />
        </mxCell>
        <mxCell id="Yi_f9LWQrYLCisY741Na-22" value="Choose a pic" style="strokeWidth=1;shadow=0;dashed=0;align=center;html=1;shape=mxgraph.mockup.forms.rrect;fillColor=#ffffff;rSize=0;fontColor=#666666;align=left;spacingLeft=3;strokeColor=#999999;" vertex="1" parent="Yi_f9LWQrYLCisY741Na-1">
          <mxGeometry x="200" y="420" width="350" height="18" as="geometry" />
        </mxCell>
        <mxCell id="Yi_f9LWQrYLCisY741Na-25" value="L&#39;importo della corsa risulta maggiore del costo effettivo." style="strokeWidth=1;shadow=0;dashed=0;align=center;html=1;shape=mxgraph.mockup.forms.rrect;fillColor=#ffffff;rSize=0;fontColor=#666666;align=left;spacingLeft=3;strokeColor=#999999;verticalAlign=top;whiteSpace=wrap;" vertex="1" parent="Yi_f9LWQrYLCisY741Na-1">
          <mxGeometry x="150" y="460" width="400" height="125" as="geometry" />
        </mxCell>
        <mxCell id="Yi_f9LWQrYLCisY741Na-28" value="" style="endArrow=classic;html=1;rounded=0;" edge="1" parent="Yi_f9LWQrYLCisY741Na-1">
          <mxGeometry width="50" height="50" relative="1" as="geometry">
            <mxPoint x="550" y="360" as="sourcePoint" />
            <mxPoint x="710" y="360" as="targetPoint" />
          </mxGeometry>
        </mxCell>
        <mxCell id="Yi_f9LWQrYLCisY741Na-29" value="" style="swimlane;strokeColor=#999999;swimlaneFillColor=#FFFFFF;fillColor=#ffffff;fontColor=#666666;fontStyle=0;childLayout=stackLayout;horizontal=1;startSize=0;horizontalStack=0;resizeParent=1;resizeParentMax=0;resizeLast=0;collapsible=0;marginBottom=0;whiteSpace=wrap;html=1;" vertex="1" parent="Yi_f9LWQrYLCisY741Na-1">
          <mxGeometry x="720" y="340" width="150" height="120" as="geometry" />
        </mxCell>
        <mxCell id="Yi_f9LWQrYLCisY741Na-30" value="Accident" style="text;strokeColor=none;align=left;verticalAlign=middle;spacingLeft=27;spacingRight=10;overflow=hidden;points=[[0,0.5],[1,0.5]];portConstraint=eastwest;rotatable=0;whiteSpace=wrap;html=1;fillColor=none;fontColor=inherit;fontSize=17;" vertex="1" parent="Yi_f9LWQrYLCisY741Na-29">
          <mxGeometry width="150" height="30" as="geometry" />
        </mxCell>
        <mxCell id="Yi_f9LWQrYLCisY741Na-31" value="" style="shape=ellipse;resizable=0;fillColor=#EEEEEE;strokeColor=#999999;gradientColor=#cccccc;html=1;" vertex="1" parent="Yi_f9LWQrYLCisY741Na-30">
          <mxGeometry y="0.5" width="15" height="15" relative="1" as="geometry">
            <mxPoint x="8" y="-7.5" as="offset" />
          </mxGeometry>
        </mxCell>
        <mxCell id="Yi_f9LWQrYLCisY741Na-32" value="Behavior" style="text;strokeColor=none;align=left;verticalAlign=middle;spacingLeft=27;spacingRight=10;overflow=hidden;points=[[0,0.5],[1,0.5]];portConstraint=eastwest;rotatable=0;whiteSpace=wrap;html=1;rSize=5;fillColor=none;fontColor=inherit;fontSize=17;" vertex="1" parent="Yi_f9LWQrYLCisY741Na-29">
          <mxGeometry y="30" width="150" height="30" as="geometry" />
        </mxCell>
        <mxCell id="Yi_f9LWQrYLCisY741Na-33" value="" style="shape=ellipse;resizable=0;fillColor=#EEEEEE;strokeColor=#999999;gradientColor=#cccccc;html=1;" vertex="1" parent="Yi_f9LWQrYLCisY741Na-32">
          <mxGeometry y="0.5" width="15" height="15" relative="1" as="geometry">
            <mxPoint x="8" y="-7.5" as="offset" />
          </mxGeometry>
        </mxCell>
        <mxCell id="Yi_f9LWQrYLCisY741Na-34" value="Payment" style="text;strokeColor=none;align=left;verticalAlign=middle;spacingLeft=27;spacingRight=10;overflow=hidden;points=[[0,0.5],[1,0.5]];portConstraint=eastwest;rotatable=0;whiteSpace=wrap;html=1;rSize=5;fillColor=none;fontColor=#008CFF;fontSize=17;" vertex="1" parent="Yi_f9LWQrYLCisY741Na-29">
          <mxGeometry y="60" width="150" height="30" as="geometry" />
        </mxCell>
        <mxCell id="Yi_f9LWQrYLCisY741Na-35" value="" style="shape=ellipse;resizable=0;fillColor=#AAAAAA;gradientColor=#666666;strokeColor=#444444;html=1;" vertex="1" parent="Yi_f9LWQrYLCisY741Na-34">
          <mxGeometry y="0.5" width="15" height="15" relative="1" as="geometry">
            <mxPoint x="8" y="-7.5" as="offset" />
          </mxGeometry>
        </mxCell>
        <mxCell id="Yi_f9LWQrYLCisY741Na-36" value="" style="shape=ellipse;resizable=0;fillColor=#444444;strokeColor=none;html=1;" vertex="1" parent="Yi_f9LWQrYLCisY741Na-35">
          <mxGeometry x="0.2" y="0.2" width="9" height="9" relative="1" as="geometry" />
        </mxCell>
        <mxCell id="Yi_f9LWQrYLCisY741Na-37" value="Fine" style="text;strokeColor=none;align=left;verticalAlign=middle;spacingLeft=27;spacingRight=10;overflow=hidden;points=[[0,0.5],[1,0.5]];portConstraint=eastwest;rotatable=0;whiteSpace=wrap;html=1;fillColor=none;fontColor=inherit;fontSize=17;" vertex="1" parent="Yi_f9LWQrYLCisY741Na-29">
          <mxGeometry y="90" width="150" height="30" as="geometry" />
        </mxCell>
        <mxCell id="Yi_f9LWQrYLCisY741Na-38" value="" style="shape=ellipse;resizable=0;fillColor=#EEEEEE;strokeColor=#999999;gradientColor=#cccccc;html=1;" vertex="1" parent="Yi_f9LWQrYLCisY741Na-37">
          <mxGeometry y="0.5" width="15" height="15" relative="1" as="geometry">
            <mxPoint x="8" y="-7.5" as="offset" />
          </mxGeometry>
        </mxCell>
        <mxCell id="Yi_f9LWQrYLCisY741Na-39" value="" style="swimlane;strokeColor=#999999;swimlaneFillColor=#FFFFFF;fillColor=#ffffff;fontColor=#666666;fontStyle=0;childLayout=stackLayout;horizontal=1;startSize=0;horizontalStack=0;resizeParent=1;resizeParentMax=0;resizeLast=0;collapsible=0;marginBottom=0;whiteSpace=wrap;html=1;" vertex="1" parent="Yi_f9LWQrYLCisY741Na-1">
          <mxGeometry x="720" y="460" width="150" height="30" as="geometry" />
        </mxCell>
        <mxCell id="Yi_f9LWQrYLCisY741Na-40" value="Other" style="text;strokeColor=none;align=left;verticalAlign=middle;spacingLeft=27;spacingRight=10;overflow=hidden;points=[[0,0.5],[1,0.5]];portConstraint=eastwest;rotatable=0;whiteSpace=wrap;html=1;fillColor=none;fontColor=inherit;fontSize=17;" vertex="1" parent="Yi_f9LWQrYLCisY741Na-39">
          <mxGeometry width="150" height="30" as="geometry" />
        </mxCell>
        <mxCell id="Yi_f9LWQrYLCisY741Na-41" value="" style="shape=ellipse;resizable=0;fillColor=#EEEEEE;strokeColor=#999999;gradientColor=#cccccc;html=1;" vertex="1" parent="Yi_f9LWQrYLCisY741Na-40">
          <mxGeometry y="0.5" width="15" height="15" relative="1" as="geometry">
            <mxPoint x="8" y="-7.5" as="offset" />
          </mxGeometry>
        </mxCell>
        <mxCell id="Yi_f9LWQrYLCisY741Na-50" value="" style="verticalLabelPosition=bottom;verticalAlign=top;html=1;shape=mxgraph.basic.obtuse_triangle;dx=0.25;rotation=-35;" vertex="1" parent="Yi_f9LWQrYLCisY741Na-1">
          <mxGeometry x="531.95" y="355.55" width="10.01" height="6.9" as="geometry" />
        </mxCell>
        <mxCell id="Yi_f9LWQrYLCisY741Na-52" value="Email inserita automaticamente dal sistema" style="text;html=1;align=center;verticalAlign=middle;whiteSpace=wrap;rounded=0;" vertex="1" parent="Yi_f9LWQrYLCisY741Na-1">
          <mxGeometry x="190" y="230" width="270" height="30" as="geometry" />
        </mxCell>
        <mxCell id="Yi_f9LWQrYLCisY741Na-53" value="" style="curved=1;endArrow=classic;html=1;rounded=0;" edge="1" parent="Yi_f9LWQrYLCisY741Na-1" source="Yi_f9LWQrYLCisY741Na-15" target="Yi_f9LWQrYLCisY741Na-52">
          <mxGeometry width="50" height="50" relative="1" as="geometry">
            <mxPoint x="150" y="315" as="sourcePoint" />
            <mxPoint x="200" y="265" as="targetPoint" />
            <Array as="points">
              <mxPoint x="130" y="290" />
              <mxPoint x="150" y="250" />
            </Array>
          </mxGeometry>
        </mxCell>
        <mxCell id="Yi_f9LWQrYLCisY741Na-56" value="" style="curved=1;endArrow=classic;html=1;rounded=0;" edge="1" parent="Yi_f9LWQrYLCisY741Na-1" target="Yi_f9LWQrYLCisY741Na-57">
          <mxGeometry width="50" height="50" relative="1" as="geometry">
            <mxPoint x="140" y="390" as="sourcePoint" />
            <mxPoint x="190" y="210" as="targetPoint" />
            <Array as="points">
              <mxPoint x="90" y="380" />
              <mxPoint x="90" y="230" />
            </Array>
          </mxGeometry>
        </mxCell>
        <mxCell id="Yi_f9LWQrYLCisY741Na-57" value="ID ride inserita automaticamente dal sistema" style="text;html=1;align=center;verticalAlign=middle;whiteSpace=wrap;rounded=0;" vertex="1" parent="Yi_f9LWQrYLCisY741Na-1">
          <mxGeometry x="190" y="200" width="270" height="30" as="geometry" />
        </mxCell>
        <mxCell id="Yi_f9LWQrYLCisY741Na-58" value="" style="endArrow=classic;html=1;rounded=0;" edge="1" parent="Yi_f9LWQrYLCisY741Na-1">
          <mxGeometry width="50" height="50" relative="1" as="geometry">
            <mxPoint x="550" y="430" as="sourcePoint" />
            <mxPoint x="710" y="540" as="targetPoint" />
          </mxGeometry>
        </mxCell>
        <mxCell id="Yi_f9LWQrYLCisY741Na-73" value="" style="strokeWidth=1;shadow=0;dashed=0;align=center;html=1;shape=mxgraph.mockup.containers.window;align=left;verticalAlign=top;spacingLeft=8;strokeColor2=#008cff;strokeColor3=#c4c4c4;fontColor=#666666;mainText=;fontSize=17;labelBackgroundColor=none;whiteSpace=wrap;" vertex="1" parent="Yi_f9LWQrYLCisY741Na-1">
          <mxGeometry x="710" y="500" width="200" height="160" as="geometry" />
        </mxCell>
        <mxCell id="Yi_f9LWQrYLCisY741Na-82" value="or" style="text;html=1;align=center;verticalAlign=middle;whiteSpace=wrap;rounded=0;" vertex="1" parent="Yi_f9LWQrYLCisY741Na-1">
          <mxGeometry x="802.5" y="585" width="25" height="15" as="geometry" />
        </mxCell>
        <mxCell id="Yi_f9LWQrYLCisY741Na-84" value="" style="strokeWidth=1;shadow=0;dashed=0;align=center;html=1;shape=mxgraph.mockup.buttons.multiButton;fillColor=#008cff;strokeColor=#666666;mainText=;subText=;" vertex="1" parent="Yi_f9LWQrYLCisY741Na-1">
          <mxGeometry x="765" y="610" width="100" height="25" as="geometry" />
        </mxCell>
        <mxCell id="Yi_f9LWQrYLCisY741Na-85" value="" style="strokeWidth=1;shadow=0;dashed=0;align=center;html=1;shape=mxgraph.mockup.anchor;fontSize=16;fontColor=#ffffff;fontStyle=1;whiteSpace=wrap;" vertex="1" parent="Yi_f9LWQrYLCisY741Na-84">
          <mxGeometry y="3.2" width="100" height="8" as="geometry" />
        </mxCell>
        <mxCell id="Yi_f9LWQrYLCisY741Na-86" value="" style="strokeWidth=1;shadow=0;dashed=0;align=center;html=1;shape=mxgraph.mockup.anchor;fontSize=12;fontColor=#ffffff;fontStyle=1;whiteSpace=wrap;" vertex="1" parent="Yi_f9LWQrYLCisY741Na-84">
          <mxGeometry y="12" width="100" height="4" as="geometry" />
        </mxCell>
        <mxCell id="Yi_f9LWQrYLCisY741Na-87" value="Make a photo" style="text;html=1;align=center;verticalAlign=middle;whiteSpace=wrap;rounded=0;" vertex="1" parent="Yi_f9LWQrYLCisY741Na-84">
          <mxGeometry x="5" y="-5" width="90" height="30" as="geometry" />
        </mxCell>
        <mxCell id="Yi_f9LWQrYLCisY741Na-93" value="" style="shape=actor;whiteSpace=wrap;html=1;" vertex="1" parent="Yi_f9LWQrYLCisY741Na-1">
          <mxGeometry x="990" y="122.5" width="40" height="50" as="geometry" />
        </mxCell>
        <mxCell id="Yi_f9LWQrYLCisY741Na-98" value="&lt;font style=&quot;font-size: 12px;&quot;&gt;Choose an existent pic&lt;/font&gt;" style="strokeWidth=1;shadow=0;dashed=0;align=center;html=1;shape=mxgraph.mockup.forms.searchBox;strokeColor=#999999;mainText=;strokeColor2=#008cff;fontColor=#666666;fontSize=17;align=left;spacingLeft=3;whiteSpace=wrap;" vertex="1" parent="Yi_f9LWQrYLCisY741Na-1">
          <mxGeometry x="740" y="555" width="150" height="30" as="geometry" />
        </mxCell>
        <mxCell id="Yi_f9LWQrYLCisY741Na-99" value="" style="endArrow=classic;html=1;rounded=0;" edge="1" parent="Yi_f9LWQrYLCisY741Na-1">
          <mxGeometry width="50" height="50" relative="1" as="geometry">
            <mxPoint x="890" y="570" as="sourcePoint" />
            <mxPoint x="1250" y="570" as="targetPoint" />
          </mxGeometry>
        </mxCell>
        <mxCell id="Yi_f9LWQrYLCisY741Na-116" value="Delete" style="strokeWidth=1;shadow=0;dashed=0;align=center;html=1;shape=mxgraph.mockup.buttons.button;strokeColor=#666666;fontColor=#ffffff;mainText=;buttonStyle=round;fontSize=17;fontStyle=1;fillColor=#CC0000;whiteSpace=wrap;" vertex="1" parent="Yi_f9LWQrYLCisY741Na-1">
          <mxGeometry x="290" y="600" width="120" height="40" as="geometry" />
        </mxCell>
        <mxCell id="Yi_f9LWQrYLCisY741Na-117" value="Confirn" style="strokeWidth=1;shadow=0;dashed=0;align=center;html=1;shape=mxgraph.mockup.buttons.button;strokeColor=#666666;fontColor=#ffffff;mainText=;buttonStyle=round;fontSize=17;fontStyle=1;fillColor=#008cff;whiteSpace=wrap;" vertex="1" parent="Yi_f9LWQrYLCisY741Na-1">
          <mxGeometry x="425" y="600" width="125" height="40" as="geometry" />
        </mxCell>
        <mxCell id="Yi_f9LWQrYLCisY741Na-118" value="" style="strokeWidth=1;shadow=0;dashed=0;align=center;html=1;shape=mxgraph.mockup.buttons.button;strokeColor=#666666;fontColor=#ffffff;mainText=;buttonStyle=round;fontSize=17;fontStyle=1;fillColor=#696969;whiteSpace=wrap;" vertex="1" parent="Yi_f9LWQrYLCisY741Na-1">
          <mxGeometry x="150" y="600" width="125" height="40" as="geometry" />
        </mxCell>
        <mxCell id="Yi_f9LWQrYLCisY741Na-123" value="&lt;font style=&quot;font-size: 17px;&quot;&gt;&lt;b&gt;Cancel&lt;/b&gt;&lt;/font&gt;" style="text;whiteSpace=wrap;html=1;" vertex="1" parent="Yi_f9LWQrYLCisY741Na-1">
          <mxGeometry x="180" y="602.5" width="80" height="40" as="geometry" />
        </mxCell>
        <mxCell id="Yi_f9LWQrYLCisY741Na-124" value="" style="endArrow=classic;html=1;rounded=0;entryX=0.44;entryY=-0.067;entryDx=0;entryDy=0;entryPerimeter=0;" edge="1" parent="Yi_f9LWQrYLCisY741Na-1" target="Yi_f9LWQrYLCisY741Na-385">
          <mxGeometry width="50" height="50" relative="1" as="geometry">
            <mxPoint x="490" y="640" as="sourcePoint" />
            <mxPoint x="776.8800000000001" y="822.49" as="targetPoint" />
            <Array as="points">
              <mxPoint x="640" y="730" />
            </Array>
          </mxGeometry>
        </mxCell>
        <mxCell id="Yi_f9LWQrYLCisY741Na-130" value="" style="endArrow=classic;html=1;rounded=0;entryX=0.478;entryY=-0.042;entryDx=0;entryDy=0;entryPerimeter=0;" edge="1" parent="Yi_f9LWQrYLCisY741Na-1">
          <mxGeometry width="50" height="50" relative="1" as="geometry">
            <mxPoint x="360" y="640" as="sourcePoint" />
            <mxPoint x="359.5" y="818.7399999999998" as="targetPoint" />
          </mxGeometry>
        </mxCell>
        <mxCell id="Yi_f9LWQrYLCisY741Na-94" value="&lt;font style=&quot;font-size: 24px;&quot;&gt;La schermata parte da&lt;/font&gt;&lt;div&gt;&lt;font style=&quot;font-size: 24px;&quot;&gt;Corse/Le tue corse/Segnala corsa&amp;nbsp;&lt;/font&gt;&lt;/div&gt;" style="text;html=1;align=center;verticalAlign=middle;whiteSpace=wrap;rounded=0;" vertex="1" parent="1">
          <mxGeometry x="360" y="40" width="420" height="110" as="geometry" />
        </mxCell>
        <mxCell id="Yi_f9LWQrYLCisY741Na-96" value="&lt;h1 style=&quot;margin-top: 0px;&quot;&gt;&lt;font style=&quot;font-size: 24px;&quot;&gt;API utilizzate:&lt;/font&gt;&lt;/h1&gt;&lt;div&gt;&lt;font size=&quot;3&quot; style=&quot;&quot;&gt;POST&amp;nbsp; &amp;nbsp; &amp;nbsp; &amp;nbsp; &amp;nbsp; /users/{idUser}/rides/{idRide}/reports&lt;/font&gt;&lt;/div&gt;&lt;div&gt;&lt;font size=&quot;3&quot; style=&quot;&quot;&gt;&lt;br&gt;&lt;/font&gt;&lt;/div&gt;&lt;div&gt;&lt;font size=&quot;3&quot; style=&quot;&quot;&gt;PUT&amp;nbsp;&amp;nbsp;&lt;span style=&quot;background-color: initial;&quot;&gt;&amp;nbsp; &amp;nbsp; &amp;nbsp; &amp;nbsp; &amp;nbsp; &amp;nbsp;&lt;/span&gt;&lt;span style=&quot;background-color: initial;&quot;&gt;/users/{idUser}/rides/{idRide}/reports/{idReport}&lt;/span&gt;&lt;/font&gt;&lt;/div&gt;&lt;div&gt;&lt;font size=&quot;3&quot; style=&quot;&quot;&gt;&lt;span style=&quot;background-color: initial;&quot;&gt;&lt;br&gt;&lt;/span&gt;&lt;/font&gt;&lt;/div&gt;&lt;div&gt;&lt;font size=&quot;3&quot;&gt;&lt;span style=&quot;background-color: initial;&quot;&gt;DELETE&amp;nbsp; &amp;nbsp; &amp;nbsp;&amp;nbsp;&lt;/span&gt;&lt;span style=&quot;background-color: initial;&quot;&gt;/users/{idUser}/rides/{idRide}/reports/{idReport}&lt;/span&gt;&lt;/font&gt;&lt;/div&gt;" style="text;html=1;whiteSpace=wrap;overflow=hidden;rounded=0;" vertex="1" parent="1">
          <mxGeometry x="1160" y="160" width="540" height="160" as="geometry" />
        </mxCell>
        <mxCell id="Yi_f9LWQrYLCisY741Na-97" style="edgeStyle=orthogonalEdgeStyle;rounded=0;orthogonalLoop=1;jettySize=auto;html=1;exitX=0.5;exitY=1;exitDx=0;exitDy=0;" edge="1" parent="1" source="Yi_f9LWQrYLCisY741Na-96" target="Yi_f9LWQrYLCisY741Na-96">
          <mxGeometry relative="1" as="geometry" />
        </mxCell>
        <mxCell id="Yi_f9LWQrYLCisY741Na-100" value="" style="strokeWidth=1;shadow=0;dashed=0;align=center;html=1;shape=mxgraph.mockup.containers.window;align=left;verticalAlign=top;spacingLeft=8;strokeColor2=#008cff;strokeColor3=#c4c4c4;fontColor=#666666;mainText=;fontSize=17;labelBackgroundColor=none;whiteSpace=wrap;" vertex="1" parent="1">
          <mxGeometry x="1350" y="680" width="500" height="360" as="geometry" />
        </mxCell>
        <mxCell id="Yi_f9LWQrYLCisY741Na-108" value="Gallery" style="strokeWidth=1;shadow=0;dashed=0;align=center;html=1;shape=mxgraph.mockup.forms.comboBox;strokeColor=#999999;fillColor=#050505;align=left;fillColor2=#aaddff;mainText=;fontColor=#666666;fontSize=17;spacingLeft=3;" vertex="1" parent="1">
          <mxGeometry x="1350" y="680" width="210" height="30" as="geometry" />
        </mxCell>
        <mxCell id="Yi_f9LWQrYLCisY741Na-109" value="" style="verticalLabelPosition=bottom;shadow=0;dashed=0;align=center;html=1;verticalAlign=top;strokeWidth=1;shape=mxgraph.mockup.containers.userMale;strokeColor=#666666;strokeColor2=#008cff;" vertex="1" parent="1">
          <mxGeometry x="1350" y="710" width="100" height="100" as="geometry" />
        </mxCell>
        <mxCell id="Yi_f9LWQrYLCisY741Na-110" value="" style="verticalLabelPosition=bottom;shadow=0;dashed=0;align=center;html=1;verticalAlign=top;strokeWidth=1;shape=mxgraph.mockup.containers.userMale;strokeColor=#666666;strokeColor2=#008cff;" vertex="1" parent="1">
          <mxGeometry x="1450" y="710" width="100" height="100" as="geometry" />
        </mxCell>
        <mxCell id="Yi_f9LWQrYLCisY741Na-111" value="" style="verticalLabelPosition=bottom;shadow=0;dashed=0;align=center;html=1;verticalAlign=top;strokeWidth=1;shape=mxgraph.mockup.containers.userFemale;strokeColor=#666666;strokeColor2=#008cff;" vertex="1" parent="1">
          <mxGeometry x="1550" y="710" width="100" height="100" as="geometry" />
        </mxCell>
        <mxCell id="Yi_f9LWQrYLCisY741Na-112" value="" style="verticalLabelPosition=bottom;shadow=0;dashed=0;align=center;html=1;verticalAlign=top;strokeWidth=1;shape=mxgraph.mockup.containers.userFemale;strokeColor=#666666;strokeColor2=#008cff;" vertex="1" parent="1">
          <mxGeometry x="1650" y="710" width="100" height="100" as="geometry" />
        </mxCell>
        <mxCell id="Yi_f9LWQrYLCisY741Na-113" value="" style="verticalLabelPosition=bottom;shadow=0;dashed=0;align=center;html=1;verticalAlign=top;strokeWidth=1;shape=mxgraph.mockup.containers.userMale;strokeColor=#666666;strokeColor2=#008cff;" vertex="1" parent="1">
          <mxGeometry x="1750" y="710" width="100" height="100" as="geometry" />
        </mxCell>
        <mxCell id="Yi_f9LWQrYLCisY741Na-114" value="" style="verticalLabelPosition=bottom;shadow=0;dashed=0;align=center;html=1;verticalAlign=top;strokeWidth=1;shape=mxgraph.mockup.containers.userFemale;strokeColor=#666666;strokeColor2=#008cff;" vertex="1" parent="1">
          <mxGeometry x="1350" y="810" width="100" height="100" as="geometry" />
        </mxCell>
        <mxCell id="Yi_f9LWQrYLCisY741Na-115" value="" style="verticalLabelPosition=bottom;shadow=0;dashed=0;align=center;html=1;verticalAlign=top;strokeWidth=1;shape=mxgraph.mockup.containers.userMale;strokeColor=#666666;strokeColor2=#008cff;" vertex="1" parent="1">
          <mxGeometry x="1450" y="810" width="100" height="100" as="geometry" />
        </mxCell>
        <mxCell id="Yi_f9LWQrYLCisY741Na-141" value="" style="strokeWidth=1;shadow=0;dashed=0;align=center;html=1;shape=mxgraph.mockup.containers.browserWindow;rSize=0;strokeColor=#666666;strokeColor2=#008cff;strokeColor3=#c4c4c4;mainText=,;recursiveResize=0;fontStyle=1" vertex="1" parent="1">
          <mxGeometry x="60" y="1310" width="1060" height="690" as="geometry" />
        </mxCell>
        <mxCell id="Yi_f9LWQrYLCisY741Na-142" value="Page 1" style="strokeWidth=1;shadow=0;dashed=0;align=center;html=1;shape=mxgraph.mockup.containers.anchor;fontSize=17;fontColor=#666666;align=left;whiteSpace=wrap;fontStyle=1" vertex="1" parent="Yi_f9LWQrYLCisY741Na-141">
          <mxGeometry x="60" y="12" width="110" height="26" as="geometry" />
        </mxCell>
        <mxCell id="Yi_f9LWQrYLCisY741Na-143" value="https://www.mypersonaldriver/users/{idUser/}reports" style="strokeWidth=1;shadow=0;dashed=0;align=center;html=1;shape=mxgraph.mockup.containers.anchor;rSize=0;fontSize=17;fontColor=#666666;align=left;fontStyle=1" vertex="1" parent="Yi_f9LWQrYLCisY741Na-141">
          <mxGeometry x="130" y="60" width="250" height="26" as="geometry" />
        </mxCell>
        <mxCell id="Yi_f9LWQrYLCisY741Na-144" value="" style="endArrow=none;html=1;rounded=0;entryX=1;entryY=0.261;entryDx=0;entryDy=0;entryPerimeter=0;fontStyle=1" edge="1" parent="Yi_f9LWQrYLCisY741Na-141">
          <mxGeometry width="50" height="50" relative="1" as="geometry">
            <mxPoint y="190" as="sourcePoint" />
            <mxPoint x="1059.9999999999995" y="190.08999999999992" as="targetPoint" />
          </mxGeometry>
        </mxCell>
        <mxCell id="Yi_f9LWQrYLCisY741Na-145" value="" style="shape=mxgraph.signs.transportation.car_4;html=1;pointerEvents=1;fillColor=#000000;strokeColor=none;verticalLabelPosition=bottom;verticalAlign=top;align=center;fontStyle=1" vertex="1" parent="Yi_f9LWQrYLCisY741Na-141">
          <mxGeometry x="10" y="120" width="70" height="60" as="geometry" />
        </mxCell>
        <mxCell id="Yi_f9LWQrYLCisY741Na-148" value="&lt;font style=&quot;font-size: 36px;&quot;&gt;Reports&lt;/font&gt;" style="text;html=1;align=center;verticalAlign=middle;whiteSpace=wrap;rounded=0;fontStyle=1" vertex="1" parent="Yi_f9LWQrYLCisY741Na-141">
          <mxGeometry x="410" y="190" width="210" height="80" as="geometry" />
        </mxCell>
        <mxCell id="Yi_f9LWQrYLCisY741Na-184" value="" style="shape=actor;whiteSpace=wrap;html=1;fontStyle=1" vertex="1" parent="Yi_f9LWQrYLCisY741Na-141">
          <mxGeometry x="990" y="122.5" width="40" height="50" as="geometry" />
        </mxCell>
        <mxCell id="Yi_f9LWQrYLCisY741Na-215" value="" style="swimlane;strokeColor=#999999;swimlaneFillColor=#FFFFFF;fillColor=#ffffff;fontColor=#666666;fontStyle=1;childLayout=stackLayout;horizontal=1;startSize=0;horizontalStack=0;resizeParent=1;resizeParentMax=0;resizeLast=0;collapsible=0;marginBottom=0;whiteSpace=wrap;html=1;" vertex="1" parent="Yi_f9LWQrYLCisY741Na-141">
          <mxGeometry x="70" y="280" width="710" height="120" as="geometry" />
        </mxCell>
        <mxCell id="Yi_f9LWQrYLCisY741Na-216" value="ID report" style="text;strokeColor=none;align=left;verticalAlign=middle;spacingLeft=27;spacingRight=10;overflow=hidden;points=[[0,0.5],[1,0.5]];portConstraint=eastwest;rotatable=0;whiteSpace=wrap;html=1;fillColor=none;fontColor=inherit;fontSize=17;fontStyle=1" vertex="1" parent="Yi_f9LWQrYLCisY741Na-215">
          <mxGeometry width="710" height="30" as="geometry" />
        </mxCell>
        <mxCell id="Yi_f9LWQrYLCisY741Na-217" value="" style="shape=ellipse;resizable=0;fillColor=#EEEEEE;strokeColor=#999999;gradientColor=#cccccc;html=1;fontStyle=1" vertex="1" parent="Yi_f9LWQrYLCisY741Na-216">
          <mxGeometry y="0.5" width="15" height="15" relative="1" as="geometry">
            <mxPoint x="8" y="-7.5" as="offset" />
          </mxGeometry>
        </mxCell>
        <mxCell id="Yi_f9LWQrYLCisY741Na-247" value="Status" style="shape=ellipse;fillColor=#eeeeee;strokeColor=#999999;gradientColor=#cccccc;html=1;align=left;spacingLeft=4;fontSize=17;fontColor=#666666;labelPosition=right;shadow=0;fontStyle=1" vertex="1" parent="Yi_f9LWQrYLCisY741Na-216">
          <mxGeometry x="550" y="7.5" width="15" height="15" as="geometry" />
        </mxCell>
        <mxCell id="Yi_f9LWQrYLCisY741Na-248" value="Type" style="shape=ellipse;fillColor=#eeeeee;strokeColor=#999999;gradientColor=#cccccc;html=1;align=left;spacingLeft=4;fontSize=17;fontColor=#666666;labelPosition=right;shadow=0;fontStyle=1" vertex="1" parent="Yi_f9LWQrYLCisY741Na-216">
          <mxGeometry x="400" y="7.5" width="15" height="15" as="geometry" />
        </mxCell>
        <mxCell id="Yi_f9LWQrYLCisY741Na-250" value="User" style="shape=ellipse;fillColor=#eeeeee;strokeColor=#999999;gradientColor=#cccccc;html=1;align=left;spacingLeft=4;fontSize=17;fontColor=#666666;labelPosition=right;shadow=0;fontStyle=1" vertex="1" parent="Yi_f9LWQrYLCisY741Na-216">
          <mxGeometry x="250" y="7.5" width="15" height="15" as="geometry" />
        </mxCell>
        <mxCell id="Yi_f9LWQrYLCisY741Na-274" value="View" style="shape=rectangle;strokeColor=none;fillColor=none;linkText=;fontSize=17;fontColor=#0000ff;fontStyle=5;html=1;align=center;" vertex="1" parent="Yi_f9LWQrYLCisY741Na-216">
          <mxGeometry x="70" width="150" height="30" as="geometry" />
        </mxCell>
        <mxCell id="Yi_f9LWQrYLCisY741Na-218" value="00000" style="text;strokeColor=none;align=left;verticalAlign=middle;spacingLeft=27;spacingRight=10;overflow=hidden;points=[[0,0.5],[1,0.5]];portConstraint=eastwest;rotatable=0;whiteSpace=wrap;html=1;rSize=5;fillColor=none;fontColor=inherit;fontSize=17;fontStyle=1" vertex="1" parent="Yi_f9LWQrYLCisY741Na-215">
          <mxGeometry y="30" width="710" height="30" as="geometry" />
        </mxCell>
        <mxCell id="Yi_f9LWQrYLCisY741Na-219" value="" style="shape=ellipse;resizable=0;fillColor=#EEEEEE;strokeColor=#999999;gradientColor=#cccccc;html=1;fontStyle=1" vertex="1" parent="Yi_f9LWQrYLCisY741Na-218">
          <mxGeometry y="0.5" width="15" height="15" relative="1" as="geometry">
            <mxPoint x="8" y="-7.5" as="offset" />
          </mxGeometry>
        </mxCell>
        <mxCell id="Yi_f9LWQrYLCisY741Na-263" value="f.bochicchio" style="shape=ellipse;fillColor=#eeeeee;strokeColor=#999999;gradientColor=#cccccc;html=1;align=left;spacingLeft=4;fontSize=17;fontColor=#666666;labelPosition=right;shadow=0;fontStyle=1" vertex="1" parent="Yi_f9LWQrYLCisY741Na-218">
          <mxGeometry x="250" y="7.5" width="15" height="15" as="geometry" />
        </mxCell>
        <mxCell id="Yi_f9LWQrYLCisY741Na-270" value="Concluded" style="shape=ellipse;fillColor=#00CC00;strokeColor=#999999;gradientColor=#cccccc;html=1;align=left;spacingLeft=4;fontSize=17;fontColor=#666666;labelPosition=right;shadow=0;fontStyle=1" vertex="1" parent="Yi_f9LWQrYLCisY741Na-218">
          <mxGeometry x="550" y="7.5" width="15" height="15" as="geometry" />
        </mxCell>
        <mxCell id="Yi_f9LWQrYLCisY741Na-276" value="View" style="shape=rectangle;strokeColor=none;fillColor=none;linkText=;fontSize=17;fontColor=#0000ff;fontStyle=5;html=1;align=center;" vertex="1" parent="Yi_f9LWQrYLCisY741Na-218">
          <mxGeometry x="70" width="150" height="30" as="geometry" />
        </mxCell>
        <mxCell id="Yi_f9LWQrYLCisY741Na-252" value="Accident" style="shape=ellipse;fillColor=#CC0000;strokeColor=#999999;gradientColor=#cccccc;html=1;align=left;spacingLeft=4;fontSize=17;fontColor=#666666;labelPosition=right;shadow=0;fontStyle=1" vertex="1" parent="Yi_f9LWQrYLCisY741Na-218">
          <mxGeometry x="400" y="7.5" width="15" height="15" as="geometry" />
        </mxCell>
        <mxCell id="Yi_f9LWQrYLCisY741Na-220" value="00001" style="text;strokeColor=none;align=left;verticalAlign=middle;spacingLeft=27;spacingRight=10;overflow=hidden;points=[[0,0.5],[1,0.5]];portConstraint=eastwest;rotatable=0;whiteSpace=wrap;html=1;rSize=5;fillColor=none;fontColor=#008CFF;fontSize=17;fontStyle=1" vertex="1" parent="Yi_f9LWQrYLCisY741Na-215">
          <mxGeometry y="60" width="710" height="30" as="geometry" />
        </mxCell>
        <mxCell id="Yi_f9LWQrYLCisY741Na-221" value="" style="shape=ellipse;resizable=0;fillColor=#AAAAAA;gradientColor=#666666;strokeColor=#444444;html=1;fontStyle=1" vertex="1" parent="Yi_f9LWQrYLCisY741Na-220">
          <mxGeometry y="0.5" width="15" height="15" relative="1" as="geometry">
            <mxPoint x="8" y="-7.5" as="offset" />
          </mxGeometry>
        </mxCell>
        <mxCell id="Yi_f9LWQrYLCisY741Na-222" value="" style="shape=ellipse;resizable=0;fillColor=#444444;strokeColor=none;html=1;fontStyle=1" vertex="1" parent="Yi_f9LWQrYLCisY741Na-221">
          <mxGeometry x="0.2" y="0.2" width="9" height="9" relative="1" as="geometry" />
        </mxCell>
        <mxCell id="Yi_f9LWQrYLCisY741Na-264" value="a.maftei" style="shape=ellipse;fillColor=#eeeeee;strokeColor=#999999;gradientColor=#cccccc;html=1;align=left;spacingLeft=4;fontSize=17;fontColor=#666666;labelPosition=right;shadow=0;fontStyle=1" vertex="1" parent="Yi_f9LWQrYLCisY741Na-220">
          <mxGeometry x="250" y="7.5" width="15" height="15" as="geometry" />
        </mxCell>
        <mxCell id="Yi_f9LWQrYLCisY741Na-272" value="Awaiting review" style="shape=ellipse;fillColor=#FFFF00;strokeColor=#999999;gradientColor=#cccccc;html=1;align=left;spacingLeft=4;fontSize=17;fontColor=#666666;labelPosition=right;shadow=0;fontStyle=1" vertex="1" parent="Yi_f9LWQrYLCisY741Na-220">
          <mxGeometry x="550" y="7.5" width="15" height="15" as="geometry" />
        </mxCell>
        <mxCell id="Yi_f9LWQrYLCisY741Na-277" value="View" style="shape=rectangle;strokeColor=none;fillColor=none;linkText=;fontSize=17;fontColor=#0000ff;fontStyle=5;html=1;align=center;" vertex="1" parent="Yi_f9LWQrYLCisY741Na-220">
          <mxGeometry x="70" width="150" height="30" as="geometry" />
        </mxCell>
        <mxCell id="Yi_f9LWQrYLCisY741Na-251" value="Payment" style="shape=ellipse;fillColor=#0008EE;strokeColor=#999999;gradientColor=#cccccc;html=1;align=left;spacingLeft=4;fontSize=17;fontColor=#666666;labelPosition=right;shadow=0;fontStyle=1" vertex="1" parent="Yi_f9LWQrYLCisY741Na-220">
          <mxGeometry x="400" y="7.5" width="15" height="15" as="geometry" />
        </mxCell>
        <mxCell id="Yi_f9LWQrYLCisY741Na-223" value="&lt;div&gt;&lt;br&gt;&lt;/div&gt;&lt;div&gt;&lt;br&gt;&lt;/div&gt;" style="text;strokeColor=none;align=left;verticalAlign=middle;spacingLeft=27;spacingRight=10;overflow=hidden;points=[[0,0.5],[1,0.5]];portConstraint=eastwest;rotatable=0;whiteSpace=wrap;html=1;fillColor=none;fontColor=inherit;fontSize=17;fontStyle=1" vertex="1" parent="Yi_f9LWQrYLCisY741Na-215">
          <mxGeometry y="90" width="710" height="30" as="geometry" />
        </mxCell>
        <mxCell id="Yi_f9LWQrYLCisY741Na-224" value="" style="shape=ellipse;resizable=0;fillColor=#EEEEEE;strokeColor=#999999;gradientColor=#cccccc;html=1;fontStyle=1" vertex="1" parent="Yi_f9LWQrYLCisY741Na-223">
          <mxGeometry y="0.5" width="15" height="15" relative="1" as="geometry">
            <mxPoint x="8" y="-7.5" as="offset" />
          </mxGeometry>
        </mxCell>
        <mxCell id="Yi_f9LWQrYLCisY741Na-256" value="00002" style="text;strokeColor=none;align=left;verticalAlign=middle;spacingLeft=27;spacingRight=10;overflow=hidden;points=[[0,0.5],[1,0.5]];portConstraint=eastwest;rotatable=0;whiteSpace=wrap;html=1;rSize=5;fillColor=none;fontColor=inherit;fontSize=17;fontStyle=1" vertex="1" parent="Yi_f9LWQrYLCisY741Na-223">
          <mxGeometry width="710" height="30" as="geometry" />
        </mxCell>
        <mxCell id="Yi_f9LWQrYLCisY741Na-257" value="" style="shape=ellipse;resizable=0;fillColor=#EEEEEE;strokeColor=#999999;gradientColor=#cccccc;html=1;fontStyle=1" vertex="1" parent="Yi_f9LWQrYLCisY741Na-256">
          <mxGeometry y="0.5" width="15" height="15" relative="1" as="geometry">
            <mxPoint x="8" y="-7.5" as="offset" />
          </mxGeometry>
        </mxCell>
        <mxCell id="Yi_f9LWQrYLCisY741Na-258" value="Fine" style="shape=ellipse;fillColor=#00CC00;strokeColor=#999999;gradientColor=#cccccc;html=1;align=left;spacingLeft=4;fontSize=17;fontColor=#666666;labelPosition=right;shadow=0;fontStyle=1" vertex="1" parent="Yi_f9LWQrYLCisY741Na-256">
          <mxGeometry x="400" y="7.5" width="15" height="15" as="geometry" />
        </mxCell>
        <mxCell id="Yi_f9LWQrYLCisY741Na-267" value="t.lorenzetti" style="shape=ellipse;fillColor=#eeeeee;strokeColor=#999999;gradientColor=#cccccc;html=1;align=left;spacingLeft=4;fontSize=17;fontColor=#666666;labelPosition=right;shadow=0;fontStyle=1" vertex="1" parent="Yi_f9LWQrYLCisY741Na-256">
          <mxGeometry x="250" y="7.5" width="15" height="15" as="geometry" />
        </mxCell>
        <mxCell id="Yi_f9LWQrYLCisY741Na-273" value="Cancelled" style="shape=ellipse;fillColor=#CC0000;strokeColor=#999999;gradientColor=#cccccc;html=1;align=left;spacingLeft=4;fontSize=17;fontColor=#666666;labelPosition=right;shadow=0;fontStyle=1" vertex="1" parent="Yi_f9LWQrYLCisY741Na-256">
          <mxGeometry x="550" y="7.5" width="15" height="15" as="geometry" />
        </mxCell>
        <mxCell id="Yi_f9LWQrYLCisY741Na-278" value="View" style="shape=rectangle;strokeColor=none;fillColor=none;linkText=;fontSize=17;fontColor=#0000ff;fontStyle=5;html=1;align=center;" vertex="1" parent="Yi_f9LWQrYLCisY741Na-256">
          <mxGeometry x="70" width="150" height="30" as="geometry" />
        </mxCell>
        <mxCell id="Yi_f9LWQrYLCisY741Na-290" value="" style="endArrow=classic;html=1;rounded=0;" edge="1" parent="Yi_f9LWQrYLCisY741Na-256">
          <mxGeometry width="50" height="50" relative="1" as="geometry">
            <mxPoint x="460" y="30" as="sourcePoint" />
            <mxPoint x="1150" y="120" as="targetPoint" />
            <Array as="points">
              <mxPoint x="460" y="120" />
            </Array>
          </mxGeometry>
        </mxCell>
        <mxCell id="Yi_f9LWQrYLCisY741Na-309" value="" style="endArrow=classic;html=1;rounded=0;fontStyle=1" edge="1" parent="Yi_f9LWQrYLCisY741Na-256">
          <mxGeometry width="50" height="50" relative="1" as="geometry">
            <mxPoint x="140" y="30" as="sourcePoint" />
            <mxPoint x="140" y="400" as="targetPoint" />
          </mxGeometry>
        </mxCell>
        <mxCell id="Yi_f9LWQrYLCisY741Na-279" value="" style="endArrow=classic;html=1;rounded=0;entryX=0;entryY=0.333;entryDx=0;entryDy=0;entryPerimeter=0;" edge="1" parent="Yi_f9LWQrYLCisY741Na-141" target="Yi_f9LWQrYLCisY741Na-281">
          <mxGeometry width="50" height="50" relative="1" as="geometry">
            <mxPoint x="780" y="290" as="sourcePoint" />
            <mxPoint x="1210" y="290" as="targetPoint" />
          </mxGeometry>
        </mxCell>
        <mxCell id="Yi_f9LWQrYLCisY741Na-193" value="&lt;h1 style=&quot;margin-top: 0px;&quot;&gt;API utilizzate:&lt;/h1&gt;&lt;div&gt;&lt;br&gt;&lt;/div&gt;&lt;div&gt;&lt;font style=&quot;font-size: 18px;&quot;&gt;GET&amp;nbsp; &amp;nbsp;/users/{idUser}/reports&lt;/font&gt;&lt;/div&gt;&lt;div&gt;&lt;font style=&quot;font-size: 18px;&quot;&gt;GET&amp;nbsp; &amp;nbsp;&amp;nbsp;&lt;/font&gt;&lt;span style=&quot;font-size: 18px; background-color: initial;&quot;&gt;/users/{idUser}/reports/{idReport}&lt;/span&gt;&lt;/div&gt;" style="text;html=1;whiteSpace=wrap;overflow=hidden;rounded=0;" vertex="1" parent="1">
          <mxGeometry x="1150" y="1330" width="359" height="140" as="geometry" />
        </mxCell>
        <mxCell id="Yi_f9LWQrYLCisY741Na-194" style="edgeStyle=orthogonalEdgeStyle;rounded=0;orthogonalLoop=1;jettySize=auto;html=1;exitX=0.5;exitY=1;exitDx=0;exitDy=0;" edge="1" parent="1" source="Yi_f9LWQrYLCisY741Na-193" target="Yi_f9LWQrYLCisY741Na-193">
          <mxGeometry relative="1" as="geometry" />
        </mxCell>
        <mxCell id="Yi_f9LWQrYLCisY741Na-214" value="&lt;span style=&quot;font-size: 24px;&quot;&gt;La schermata parte da&lt;/span&gt;&lt;div&gt;&lt;span style=&quot;font-size: 24px;&quot;&gt;Segnalazioni (in admin)&lt;/span&gt;&lt;/div&gt;" style="text;html=1;align=center;verticalAlign=middle;whiteSpace=wrap;rounded=0;fontStyle=1" vertex="1" parent="1">
          <mxGeometry x="360" y="1210" width="420" height="110" as="geometry" />
        </mxCell>
        <mxCell id="Yi_f9LWQrYLCisY741Na-280" value="" style="swimlane;strokeColor=#999999;swimlaneFillColor=#FFFFFF;fillColor=#ffffff;fontColor=#666666;fontStyle=0;childLayout=stackLayout;horizontal=1;startSize=0;horizontalStack=0;resizeParent=1;resizeParentMax=0;resizeLast=0;collapsible=0;marginBottom=0;whiteSpace=wrap;html=1;" vertex="1" parent="1">
          <mxGeometry x="1280" y="1590" width="200" height="90" as="geometry" />
        </mxCell>
        <mxCell id="Yi_f9LWQrYLCisY741Na-281" value="Awating review" style="text;strokeColor=none;align=left;verticalAlign=middle;spacingLeft=27;spacingRight=10;overflow=hidden;points=[[0,0.5],[1,0.5]];portConstraint=eastwest;rotatable=0;whiteSpace=wrap;html=1;fillColor=none;fontColor=inherit;fontSize=17;" vertex="1" parent="Yi_f9LWQrYLCisY741Na-280">
          <mxGeometry width="200" height="30" as="geometry" />
        </mxCell>
        <mxCell id="Yi_f9LWQrYLCisY741Na-282" value="" style="shape=ellipse;resizable=0;fillColor=#FFFF00;strokeColor=#999999;gradientColor=#cccccc;html=1;" vertex="1" parent="Yi_f9LWQrYLCisY741Na-281">
          <mxGeometry y="0.5" width="15" height="15" relative="1" as="geometry">
            <mxPoint x="8" y="-7.5" as="offset" />
          </mxGeometry>
        </mxCell>
        <mxCell id="Yi_f9LWQrYLCisY741Na-283" value="Concluded" style="text;strokeColor=none;align=left;verticalAlign=middle;spacingLeft=27;spacingRight=10;overflow=hidden;points=[[0,0.5],[1,0.5]];portConstraint=eastwest;rotatable=0;whiteSpace=wrap;html=1;rSize=5;fillColor=none;fontColor=inherit;fontSize=17;" vertex="1" parent="Yi_f9LWQrYLCisY741Na-280">
          <mxGeometry y="30" width="200" height="30" as="geometry" />
        </mxCell>
        <mxCell id="Yi_f9LWQrYLCisY741Na-284" value="" style="shape=ellipse;resizable=0;fillColor=#00CC00;strokeColor=#999999;gradientColor=#cccccc;html=1;" vertex="1" parent="Yi_f9LWQrYLCisY741Na-283">
          <mxGeometry y="0.5" width="15" height="15" relative="1" as="geometry">
            <mxPoint x="8" y="-7.5" as="offset" />
          </mxGeometry>
        </mxCell>
        <mxCell id="Yi_f9LWQrYLCisY741Na-285" value="Cancelled" style="text;strokeColor=none;align=left;verticalAlign=middle;spacingLeft=27;spacingRight=10;overflow=hidden;points=[[0,0.5],[1,0.5]];portConstraint=eastwest;rotatable=0;whiteSpace=wrap;html=1;rSize=5;fillColor=none;fontColor=#008CFF;fontSize=17;" vertex="1" parent="Yi_f9LWQrYLCisY741Na-280">
          <mxGeometry y="60" width="200" height="30" as="geometry" />
        </mxCell>
        <mxCell id="Yi_f9LWQrYLCisY741Na-286" value="" style="shape=ellipse;resizable=0;fillColor=#CC0000;gradientColor=#666666;strokeColor=#444444;html=1;" vertex="1" parent="Yi_f9LWQrYLCisY741Na-285">
          <mxGeometry y="0.5" width="15" height="15" relative="1" as="geometry">
            <mxPoint x="8" y="-7.5" as="offset" />
          </mxGeometry>
        </mxCell>
        <mxCell id="Yi_f9LWQrYLCisY741Na-287" value="" style="shape=ellipse;resizable=0;fillColor=#444444;strokeColor=none;html=1;" vertex="1" parent="Yi_f9LWQrYLCisY741Na-286">
          <mxGeometry x="0.2" y="0.2" width="9" height="9" relative="1" as="geometry" />
        </mxCell>
        <mxCell id="Yi_f9LWQrYLCisY741Na-291" value="" style="swimlane;strokeColor=#999999;swimlaneFillColor=#FFFFFF;fillColor=#ffffff;fontColor=#666666;fontStyle=0;childLayout=stackLayout;horizontal=1;startSize=0;horizontalStack=0;resizeParent=1;resizeParentMax=0;resizeLast=0;collapsible=0;marginBottom=0;whiteSpace=wrap;html=1;" vertex="1" parent="1">
          <mxGeometry x="1280" y="1770" width="210" height="90" as="geometry" />
        </mxCell>
        <mxCell id="Yi_f9LWQrYLCisY741Na-292" value="Accident" style="text;strokeColor=none;align=left;verticalAlign=middle;spacingLeft=27;spacingRight=10;overflow=hidden;points=[[0,0.5],[1,0.5]];portConstraint=eastwest;rotatable=0;whiteSpace=wrap;html=1;fillColor=none;fontColor=inherit;fontSize=17;" vertex="1" parent="Yi_f9LWQrYLCisY741Na-291">
          <mxGeometry width="210" height="30" as="geometry" />
        </mxCell>
        <mxCell id="Yi_f9LWQrYLCisY741Na-293" value="" style="shape=ellipse;resizable=0;fillColor=#CC0000;strokeColor=#999999;gradientColor=#cccccc;html=1;" vertex="1" parent="Yi_f9LWQrYLCisY741Na-292">
          <mxGeometry y="0.5" width="15" height="15" relative="1" as="geometry">
            <mxPoint x="8" y="-7.5" as="offset" />
          </mxGeometry>
        </mxCell>
        <mxCell id="Yi_f9LWQrYLCisY741Na-294" value="Behavior" style="text;strokeColor=none;align=left;verticalAlign=middle;spacingLeft=27;spacingRight=10;overflow=hidden;points=[[0,0.5],[1,0.5]];portConstraint=eastwest;rotatable=0;whiteSpace=wrap;html=1;rSize=5;fillColor=none;fontColor=inherit;fontSize=17;" vertex="1" parent="Yi_f9LWQrYLCisY741Na-291">
          <mxGeometry y="30" width="210" height="30" as="geometry" />
        </mxCell>
        <mxCell id="Yi_f9LWQrYLCisY741Na-295" value="" style="shape=ellipse;resizable=0;fillColor=#FF8000;strokeColor=#999999;gradientColor=#cccccc;html=1;" vertex="1" parent="Yi_f9LWQrYLCisY741Na-294">
          <mxGeometry y="0.5" width="15" height="15" relative="1" as="geometry">
            <mxPoint x="8" y="-7.5" as="offset" />
          </mxGeometry>
        </mxCell>
        <mxCell id="Yi_f9LWQrYLCisY741Na-296" value="Payment" style="text;strokeColor=none;align=left;verticalAlign=middle;spacingLeft=27;spacingRight=10;overflow=hidden;points=[[0,0.5],[1,0.5]];portConstraint=eastwest;rotatable=0;whiteSpace=wrap;html=1;rSize=5;fillColor=none;fontColor=#008CFF;fontSize=17;" vertex="1" parent="Yi_f9LWQrYLCisY741Na-291">
          <mxGeometry y="60" width="210" height="30" as="geometry" />
        </mxCell>
        <mxCell id="Yi_f9LWQrYLCisY741Na-297" value="" style="shape=ellipse;resizable=0;fillColor=#0000CC;gradientColor=#666666;strokeColor=#444444;html=1;" vertex="1" parent="Yi_f9LWQrYLCisY741Na-296">
          <mxGeometry y="0.5" width="15" height="15" relative="1" as="geometry">
            <mxPoint x="8" y="-7.5" as="offset" />
          </mxGeometry>
        </mxCell>
        <mxCell id="Yi_f9LWQrYLCisY741Na-298" value="" style="shape=ellipse;resizable=0;fillColor=#444444;strokeColor=none;html=1;" vertex="1" parent="Yi_f9LWQrYLCisY741Na-297">
          <mxGeometry x="0.2" y="0.2" width="9" height="9" relative="1" as="geometry" />
        </mxCell>
        <mxCell id="Yi_f9LWQrYLCisY741Na-301" value="" style="swimlane;strokeColor=#999999;swimlaneFillColor=#FFFFFF;fillColor=#ffffff;fontColor=#666666;fontStyle=0;childLayout=stackLayout;horizontal=1;startSize=0;horizontalStack=0;resizeParent=1;resizeParentMax=0;resizeLast=0;collapsible=0;marginBottom=0;whiteSpace=wrap;html=1;" vertex="1" parent="1">
          <mxGeometry x="1280" y="1860" width="210" height="60" as="geometry" />
        </mxCell>
        <mxCell id="Yi_f9LWQrYLCisY741Na-302" value="Fine" style="text;strokeColor=none;align=left;verticalAlign=middle;spacingLeft=27;spacingRight=10;overflow=hidden;points=[[0,0.5],[1,0.5]];portConstraint=eastwest;rotatable=0;whiteSpace=wrap;html=1;fillColor=none;fontColor=inherit;fontSize=17;" vertex="1" parent="Yi_f9LWQrYLCisY741Na-301">
          <mxGeometry width="210" height="30" as="geometry" />
        </mxCell>
        <mxCell id="Yi_f9LWQrYLCisY741Na-303" value="" style="shape=ellipse;resizable=0;fillColor=#00CC00;strokeColor=#999999;gradientColor=#cccccc;html=1;" vertex="1" parent="Yi_f9LWQrYLCisY741Na-302">
          <mxGeometry y="0.5" width="15" height="15" relative="1" as="geometry">
            <mxPoint x="8" y="-7.5" as="offset" />
          </mxGeometry>
        </mxCell>
        <mxCell id="Yi_f9LWQrYLCisY741Na-304" value="Other" style="text;strokeColor=none;align=left;verticalAlign=middle;spacingLeft=27;spacingRight=10;overflow=hidden;points=[[0,0.5],[1,0.5]];portConstraint=eastwest;rotatable=0;whiteSpace=wrap;html=1;rSize=5;fillColor=none;fontColor=inherit;fontSize=17;" vertex="1" parent="Yi_f9LWQrYLCisY741Na-301">
          <mxGeometry y="30" width="210" height="30" as="geometry" />
        </mxCell>
        <mxCell id="Yi_f9LWQrYLCisY741Na-305" value="" style="shape=ellipse;resizable=0;fillColor=#808080;strokeColor=#999999;gradientColor=#cccccc;html=1;" vertex="1" parent="Yi_f9LWQrYLCisY741Na-304">
          <mxGeometry y="0.5" width="15" height="15" relative="1" as="geometry">
            <mxPoint x="8" y="-7.5" as="offset" />
          </mxGeometry>
        </mxCell>
        <mxCell id="Yi_f9LWQrYLCisY741Na-321" value="Report 00001" style="strokeWidth=1;shadow=0;dashed=0;align=center;html=1;shape=mxgraph.mockup.containers.window;align=left;verticalAlign=top;spacingLeft=8;strokeColor2=#008cff;strokeColor3=#c4c4c4;fontColor=#666666;mainText=;fontSize=17;labelBackgroundColor=none;whiteSpace=wrap;" vertex="1" parent="1">
          <mxGeometry x="60" y="2080" width="500" height="480" as="geometry" />
        </mxCell>
        <mxCell id="Yi_f9LWQrYLCisY741Na-334" value="L&#39;importo della corsa risulta maggiore del costo effettivo." style="strokeWidth=1;shadow=0;dashed=0;align=center;html=1;shape=mxgraph.mockup.forms.rrect;fillColor=#ffffff;rSize=0;fontColor=#666666;align=left;spacingLeft=3;strokeColor=#999999;verticalAlign=top;whiteSpace=wrap;" vertex="1" parent="1">
          <mxGeometry x="92.5" y="2125" width="435" height="75" as="geometry" />
        </mxCell>
        <mxCell id="Yi_f9LWQrYLCisY741Na-336" value="&lt;font style=&quot;font-size: 14px;&quot;&gt;Change Status&lt;/font&gt;" style="strokeWidth=1;shadow=0;dashed=0;align=center;html=1;shape=mxgraph.mockup.buttons.button;strokeColor=#666666;fontColor=#ffffff;mainText=;buttonStyle=round;fontSize=17;fontStyle=1;fillColor=#008cff;whiteSpace=wrap;" vertex="1" parent="1">
          <mxGeometry x="245" y="2510" width="115" height="20" as="geometry" />
        </mxCell>
        <mxCell id="Yi_f9LWQrYLCisY741Na-338" value="&lt;font style=&quot;font-size: 14px;&quot;&gt;Send an email&lt;/font&gt;" style="strokeWidth=1;shadow=0;dashed=0;align=center;html=1;shape=mxgraph.mockup.buttons.button;strokeColor=#666666;fontColor=#ffffff;mainText=;buttonStyle=round;fontSize=17;fontStyle=1;fillColor=#00CC66;whiteSpace=wrap;" vertex="1" parent="1">
          <mxGeometry x="414" y="2510" width="115" height="20" as="geometry" />
        </mxCell>
        <mxCell id="Yi_f9LWQrYLCisY741Na-339" value="&lt;font style=&quot;font-size: 14px;&quot;&gt;Cancel&lt;/font&gt;" style="strokeWidth=1;shadow=0;dashed=0;align=center;html=1;shape=mxgraph.mockup.buttons.button;strokeColor=#666666;fontColor=#ffffff;mainText=;buttonStyle=round;fontSize=17;fontStyle=1;fillColor=#CCCCCC;whiteSpace=wrap;" vertex="1" parent="1">
          <mxGeometry x="92.5" y="2510" width="115" height="20" as="geometry" />
        </mxCell>
        <mxCell id="Yi_f9LWQrYLCisY741Na-340" value="From" style="strokeWidth=1;shadow=0;dashed=0;align=center;html=1;shape=mxgraph.mockup.forms.anchor;align=right;spacingRight=2;fontColor=#666666;" vertex="1" parent="1">
          <mxGeometry x="92.5" y="2210" width="50" height="18" as="geometry" />
        </mxCell>
        <mxCell id="Yi_f9LWQrYLCisY741Na-341" value="admin@mypersonaldriver.it" style="strokeWidth=1;shadow=0;dashed=0;align=center;html=1;shape=mxgraph.mockup.forms.rrect;fillColor=#ffffff;rSize=0;fontColor=#666666;align=left;spacingLeft=3;strokeColor=#999999;" vertex="1" parent="1">
          <mxGeometry x="142.5" y="2210" width="377.5" height="18" as="geometry" />
        </mxCell>
        <mxCell id="Yi_f9LWQrYLCisY741Na-342" value="Subject" style="strokeWidth=1;shadow=0;dashed=0;align=center;html=1;shape=mxgraph.mockup.forms.anchor;align=right;spacingRight=2;fontColor=#666666;" vertex="1" parent="1">
          <mxGeometry x="92.5" y="2245" width="50" height="18" as="geometry" />
        </mxCell>
        <mxCell id="Yi_f9LWQrYLCisY741Na-343" value="Report #00001" style="strokeWidth=1;shadow=0;dashed=0;align=center;html=1;shape=mxgraph.mockup.forms.rrect;fillColor=#ffffff;rSize=0;fontColor=#666666;align=left;spacingLeft=3;strokeColor=#999999;" vertex="1" parent="1">
          <mxGeometry x="142.5" y="2245" width="377.5" height="18" as="geometry" />
        </mxCell>
        <mxCell id="Yi_f9LWQrYLCisY741Na-344" value="To" style="strokeWidth=1;shadow=0;dashed=0;align=center;html=1;shape=mxgraph.mockup.forms.anchor;align=right;spacingRight=2;fontColor=#666666;" vertex="1" parent="1">
          <mxGeometry x="92.5" y="2280" width="50" height="18" as="geometry" />
        </mxCell>
        <mxCell id="Yi_f9LWQrYLCisY741Na-345" value="a.maftei@alfasoft.it" style="strokeWidth=1;shadow=0;dashed=0;align=center;html=1;shape=mxgraph.mockup.forms.rrect;fillColor=#ffffff;rSize=0;fontColor=#666666;align=left;spacingLeft=3;strokeColor=#999999;" vertex="1" parent="1">
          <mxGeometry x="142.5" y="2280" width="377.5" height="18" as="geometry" />
        </mxCell>
        <mxCell id="Yi_f9LWQrYLCisY741Na-346" value="CC" style="strokeWidth=1;shadow=0;dashed=0;align=center;html=1;shape=mxgraph.mockup.forms.anchor;align=right;spacingRight=2;fontColor=#666666;" vertex="1" parent="1">
          <mxGeometry x="92.5" y="2315" width="50" height="18" as="geometry" />
        </mxCell>
        <mxCell id="Yi_f9LWQrYLCisY741Na-347" value="//" style="strokeWidth=1;shadow=0;dashed=0;align=center;html=1;shape=mxgraph.mockup.forms.rrect;fillColor=#ffffff;rSize=0;fontColor=#666666;align=left;spacingLeft=3;strokeColor=#999999;" vertex="1" parent="1">
          <mxGeometry x="142.5" y="2315" width="377.5" height="18" as="geometry" />
        </mxCell>
        <mxCell id="Yi_f9LWQrYLCisY741Na-350" value="Buongiorno,&lt;div&gt;La sua richiesta non può essere accolta in quanto non ci sono sufficienti informazioni a favore della sua richiesta.&lt;/div&gt;&lt;div&gt;Lasceremo la segnalazione aperta ancora per 15 giorni in modo che lei possa allegare una foto che attesti che il pagamento effettuato risulti maggiore della somma prevista, ovvero 15,71€; in caso contrario, la segnalazione verrà Chiusa.&lt;/div&gt;&lt;div&gt;Buona giornata,&amp;nbsp;&lt;/div&gt;&lt;div&gt;Il team MyPersonalDriver!&lt;/div&gt;" style="strokeWidth=1;shadow=0;dashed=0;align=center;html=1;shape=mxgraph.mockup.forms.rrect;fillColor=#ffffff;rSize=0;fontColor=#666666;align=left;spacingLeft=3;strokeColor=#999999;verticalAlign=top;whiteSpace=wrap;" vertex="1" parent="1">
          <mxGeometry x="92.5" y="2350" width="437.5" height="140" as="geometry" />
        </mxCell>
        <mxCell id="Yi_f9LWQrYLCisY741Na-351" value="" style="endArrow=classic;html=1;rounded=0;" edge="1" parent="1">
          <mxGeometry width="50" height="50" relative="1" as="geometry">
            <mxPoint x="300" y="2530" as="sourcePoint" />
            <mxPoint x="680" y="2340" as="targetPoint" />
            <Array as="points">
              <mxPoint x="300" y="2600" />
              <mxPoint x="680" y="2600" />
            </Array>
          </mxGeometry>
        </mxCell>
        <mxCell id="Yi_f9LWQrYLCisY741Na-362" value="" style="swimlane;strokeColor=#999999;swimlaneFillColor=#FFFFFF;fillColor=#ffffff;fontColor=#666666;fontStyle=0;childLayout=stackLayout;horizontal=1;startSize=0;horizontalStack=0;resizeParent=1;resizeParentMax=0;resizeLast=0;collapsible=0;marginBottom=0;whiteSpace=wrap;html=1;" vertex="1" parent="1">
          <mxGeometry x="580" y="2248" width="200" height="92" as="geometry" />
        </mxCell>
        <mxCell id="Yi_f9LWQrYLCisY741Na-363" value="Awating review" style="text;strokeColor=none;align=left;verticalAlign=middle;spacingLeft=27;spacingRight=10;overflow=hidden;points=[[0,0.5],[1,0.5]];portConstraint=eastwest;rotatable=0;whiteSpace=wrap;html=1;fillColor=none;fontColor=inherit;fontSize=17;" vertex="1" parent="Yi_f9LWQrYLCisY741Na-362">
          <mxGeometry width="200" height="32" as="geometry" />
        </mxCell>
        <mxCell id="Yi_f9LWQrYLCisY741Na-376" value="" style="shape=ellipse;resizable=0;fillColor=#FFFF00;gradientColor=#666666;strokeColor=#444444;html=1;" vertex="1" parent="Yi_f9LWQrYLCisY741Na-363">
          <mxGeometry x="6.9500000000000455" y="8.5" width="15" height="15" as="geometry" />
        </mxCell>
        <mxCell id="Yi_f9LWQrYLCisY741Na-377" value="" style="shape=ellipse;resizable=0;fillColor=#444444;strokeColor=none;html=1;" vertex="1" parent="Yi_f9LWQrYLCisY741Na-376">
          <mxGeometry x="0.2" y="0.2" width="9" height="9" relative="1" as="geometry" />
        </mxCell>
        <mxCell id="Yi_f9LWQrYLCisY741Na-365" value="Concluded" style="text;strokeColor=none;align=left;verticalAlign=middle;spacingLeft=27;spacingRight=10;overflow=hidden;points=[[0,0.5],[1,0.5]];portConstraint=eastwest;rotatable=0;whiteSpace=wrap;html=1;rSize=5;fillColor=none;fontColor=inherit;fontSize=17;" vertex="1" parent="Yi_f9LWQrYLCisY741Na-362">
          <mxGeometry y="32" width="200" height="30" as="geometry" />
        </mxCell>
        <mxCell id="Yi_f9LWQrYLCisY741Na-366" value="" style="shape=ellipse;resizable=0;fillColor=#00CC00;strokeColor=#999999;gradientColor=#cccccc;html=1;" vertex="1" parent="Yi_f9LWQrYLCisY741Na-365">
          <mxGeometry y="0.5" width="15" height="15" relative="1" as="geometry">
            <mxPoint x="8" y="-7.5" as="offset" />
          </mxGeometry>
        </mxCell>
        <mxCell id="Yi_f9LWQrYLCisY741Na-367" value="Cancelled" style="text;strokeColor=none;align=left;verticalAlign=middle;spacingLeft=27;spacingRight=10;overflow=hidden;points=[[0,0.5],[1,0.5]];portConstraint=eastwest;rotatable=0;whiteSpace=wrap;html=1;rSize=5;fillColor=none;fontColor=#008CFF;fontSize=17;" vertex="1" parent="Yi_f9LWQrYLCisY741Na-362">
          <mxGeometry y="62" width="200" height="30" as="geometry" />
        </mxCell>
        <mxCell id="Yi_f9LWQrYLCisY741Na-368" value="" style="shape=ellipse;resizable=0;fillColor=#CC0000;gradientColor=#666666;strokeColor=#999999;html=1;" vertex="1" parent="Yi_f9LWQrYLCisY741Na-367">
          <mxGeometry y="0.5" width="15" height="15" relative="1" as="geometry">
            <mxPoint x="8" y="-7.5" as="offset" />
          </mxGeometry>
        </mxCell>
        <mxCell id="Yi_f9LWQrYLCisY741Na-379" value="Do you want to delete the report?" style="strokeWidth=1;shadow=0;dashed=0;align=center;html=1;shape=mxgraph.mockup.containers.rrect;rSize=0;strokeColor=#666666;fontColor=#666666;fontSize=17;verticalAlign=top;whiteSpace=wrap;fillColor=#ffffff;spacingTop=32;" vertex="1" parent="1">
          <mxGeometry x="310" y="960" width="250" height="140" as="geometry" />
        </mxCell>
        <mxCell id="Yi_f9LWQrYLCisY741Na-380" value="Delete report" style="strokeWidth=1;shadow=0;dashed=0;align=center;html=1;shape=mxgraph.mockup.containers.rrect;rSize=0;fontSize=17;fontColor=#666666;strokeColor=#666666;align=left;spacingLeft=8;fillColor=none;resizeWidth=1;whiteSpace=wrap;" vertex="1" parent="Yi_f9LWQrYLCisY741Na-379">
          <mxGeometry width="250" height="30" relative="1" as="geometry" />
        </mxCell>
        <mxCell id="Yi_f9LWQrYLCisY741Na-381" value="" style="shape=ellipse;strokeColor=#008cff;resizable=0;fillColor=none;html=1;" vertex="1" parent="Yi_f9LWQrYLCisY741Na-380">
          <mxGeometry x="1" y="0.5" width="20" height="20" relative="1" as="geometry">
            <mxPoint x="-25" y="-10" as="offset" />
          </mxGeometry>
        </mxCell>
        <mxCell id="Yi_f9LWQrYLCisY741Na-382" value="Cancel" style="strokeWidth=1;shadow=0;dashed=0;align=center;html=1;shape=mxgraph.mockup.containers.rrect;rSize=0;fontSize=16;fontColor=#666666;strokeColor=#c4c4c4;whiteSpace=wrap;fillColor=none;" vertex="1" parent="Yi_f9LWQrYLCisY741Na-379">
          <mxGeometry x="0.25" y="1" width="90" height="25" relative="1" as="geometry">
            <mxPoint x="-45" y="-33" as="offset" />
          </mxGeometry>
        </mxCell>
        <mxCell id="Yi_f9LWQrYLCisY741Na-383" value="OK" style="strokeWidth=1;shadow=0;dashed=0;align=center;html=1;shape=mxgraph.mockup.containers.rrect;rSize=0;fontSize=16;fontColor=#666666;strokeColor=#c4c4c4;whiteSpace=wrap;fillColor=none;" vertex="1" parent="Yi_f9LWQrYLCisY741Na-379">
          <mxGeometry x="0.75" y="1" width="90" height="25" relative="1" as="geometry">
            <mxPoint x="-45" y="-33" as="offset" />
          </mxGeometry>
        </mxCell>
        <mxCell id="Yi_f9LWQrYLCisY741Na-384" value="Do you want to send the report?" style="strokeWidth=1;shadow=0;dashed=0;align=center;html=1;shape=mxgraph.mockup.containers.rrect;rSize=0;strokeColor=#666666;fontColor=#666666;fontSize=17;verticalAlign=top;whiteSpace=wrap;fillColor=#ffffff;spacingTop=32;" vertex="1" parent="1">
          <mxGeometry x="730" y="960" width="250" height="140" as="geometry" />
        </mxCell>
        <mxCell id="Yi_f9LWQrYLCisY741Na-385" value="Confirm report" style="strokeWidth=1;shadow=0;dashed=0;align=center;html=1;shape=mxgraph.mockup.containers.rrect;rSize=0;fontSize=17;fontColor=#666666;strokeColor=#666666;align=left;spacingLeft=8;fillColor=none;resizeWidth=1;whiteSpace=wrap;" vertex="1" parent="Yi_f9LWQrYLCisY741Na-384">
          <mxGeometry width="250" height="30" relative="1" as="geometry" />
        </mxCell>
        <mxCell id="Yi_f9LWQrYLCisY741Na-386" value="" style="shape=ellipse;strokeColor=#008cff;resizable=0;fillColor=none;html=1;" vertex="1" parent="Yi_f9LWQrYLCisY741Na-385">
          <mxGeometry x="1" y="0.5" width="20" height="20" relative="1" as="geometry">
            <mxPoint x="-25" y="-10" as="offset" />
          </mxGeometry>
        </mxCell>
        <mxCell id="Yi_f9LWQrYLCisY741Na-387" value="Cancel" style="strokeWidth=1;shadow=0;dashed=0;align=center;html=1;shape=mxgraph.mockup.containers.rrect;rSize=0;fontSize=16;fontColor=#666666;strokeColor=#c4c4c4;whiteSpace=wrap;fillColor=none;" vertex="1" parent="Yi_f9LWQrYLCisY741Na-384">
          <mxGeometry x="0.25" y="1" width="90" height="25" relative="1" as="geometry">
            <mxPoint x="-45" y="-33" as="offset" />
          </mxGeometry>
        </mxCell>
        <mxCell id="Yi_f9LWQrYLCisY741Na-388" value="OK" style="strokeWidth=1;shadow=0;dashed=0;align=center;html=1;shape=mxgraph.mockup.containers.rrect;rSize=0;fontSize=16;fontColor=#666666;strokeColor=#c4c4c4;whiteSpace=wrap;fillColor=none;" vertex="1" parent="Yi_f9LWQrYLCisY741Na-384">
          <mxGeometry x="0.75" y="1" width="90" height="25" relative="1" as="geometry">
            <mxPoint x="-45" y="-33" as="offset" />
          </mxGeometry>
        </mxCell>
        <mxCell id="Yi_f9LWQrYLCisY741Na-390" value="" style="endArrow=classic;html=1;rounded=0;" edge="1" parent="Yi_f9LWQrYLCisY741Na-384">
          <mxGeometry width="50" height="50" relative="1" as="geometry">
            <mxPoint x="130" y="140" as="sourcePoint" />
            <mxPoint x="470" y="210" as="targetPoint" />
            <Array as="points">
              <mxPoint x="130" y="210" />
            </Array>
          </mxGeometry>
        </mxCell>
        <mxCell id="Yi_f9LWQrYLCisY741Na-392" value="Your message was sent to the Administrator, control your emails for the response" style="strokeWidth=1;shadow=0;dashed=0;align=center;html=1;shape=mxgraph.mockup.containers.rrect;rSize=0;strokeColor=#666666;fontColor=#666666;fontSize=17;verticalAlign=top;whiteSpace=wrap;fillColor=#ffffff;spacingTop=32;" vertex="1" parent="1">
          <mxGeometry x="1204.5" y="1100" width="250" height="160" as="geometry" />
        </mxCell>
        <mxCell id="Yi_f9LWQrYLCisY741Na-393" value="Report sent!" style="strokeWidth=1;shadow=0;dashed=0;align=center;html=1;shape=mxgraph.mockup.containers.rrect;rSize=0;fontSize=17;fontColor=#666666;strokeColor=#666666;align=left;spacingLeft=8;fillColor=#ffffff;resizeWidth=1;whiteSpace=wrap;" vertex="1" parent="Yi_f9LWQrYLCisY741Na-392">
          <mxGeometry width="250" height="30" relative="1" as="geometry" />
        </mxCell>
        <mxCell id="Yi_f9LWQrYLCisY741Na-394" value="" style="shape=ellipse;strokeColor=#008cff;resizable=0;fillColor=none;html=1;" vertex="1" parent="Yi_f9LWQrYLCisY741Na-393">
          <mxGeometry x="1" y="0.5" width="20" height="20" relative="1" as="geometry">
            <mxPoint x="-25" y="-10" as="offset" />
          </mxGeometry>
        </mxCell>
        <mxCell id="Yi_f9LWQrYLCisY741Na-395" value="OK" style="strokeWidth=1;shadow=0;dashed=0;align=center;html=1;shape=mxgraph.mockup.containers.rrect;rSize=0;fontSize=16;fontColor=#666666;strokeColor=#c4c4c4;resizable=0;whiteSpace=wrap;fillColor=#ffffff;" vertex="1" parent="Yi_f9LWQrYLCisY741Na-392">
          <mxGeometry x="0.5" y="1" width="120" height="25" relative="1" as="geometry">
            <mxPoint x="-60" y="-33" as="offset" />
          </mxGeometry>
        </mxCell>
        <mxCell id="Yi_f9LWQrYLCisY741Na-399" value="" style="strokeWidth=1;shadow=0;dashed=0;align=center;html=1;shape=mxgraph.mockup.containers.browserWindow;rSize=0;strokeColor=#666666;strokeColor2=#008cff;strokeColor3=#c4c4c4;mainText=,;recursiveResize=0;" vertex="1" parent="1">
          <mxGeometry x="60" y="2740" width="1060" height="460" as="geometry" />
        </mxCell>
        <mxCell id="Yi_f9LWQrYLCisY741Na-400" value="Page 1" style="strokeWidth=1;shadow=0;dashed=0;align=center;html=1;shape=mxgraph.mockup.containers.anchor;fontSize=17;fontColor=#666666;align=left;whiteSpace=wrap;" vertex="1" parent="Yi_f9LWQrYLCisY741Na-399">
          <mxGeometry x="60" y="12" width="110" height="26" as="geometry" />
        </mxCell>
        <mxCell id="Yi_f9LWQrYLCisY741Na-401" value="https://www.mypersonaldriver/users/{idUser}/reports" style="strokeWidth=1;shadow=0;dashed=0;align=center;html=1;shape=mxgraph.mockup.containers.anchor;rSize=0;fontSize=17;fontColor=#666666;align=left;" vertex="1" parent="Yi_f9LWQrYLCisY741Na-399">
          <mxGeometry x="130" y="60" width="250" height="26" as="geometry" />
        </mxCell>
        <mxCell id="Yi_f9LWQrYLCisY741Na-402" value="" style="endArrow=none;html=1;rounded=0;entryX=1;entryY=0.261;entryDx=0;entryDy=0;entryPerimeter=0;" edge="1" parent="Yi_f9LWQrYLCisY741Na-399">
          <mxGeometry width="50" height="50" relative="1" as="geometry">
            <mxPoint y="190" as="sourcePoint" />
            <mxPoint x="1059.9999999999995" y="190.08999999999992" as="targetPoint" />
          </mxGeometry>
        </mxCell>
        <mxCell id="Yi_f9LWQrYLCisY741Na-403" value="" style="shape=mxgraph.signs.transportation.car_4;html=1;pointerEvents=1;fillColor=#000000;strokeColor=none;verticalLabelPosition=bottom;verticalAlign=top;align=center;" vertex="1" parent="Yi_f9LWQrYLCisY741Na-399">
          <mxGeometry x="10" y="120" width="70" height="60" as="geometry" />
        </mxCell>
        <mxCell id="Yi_f9LWQrYLCisY741Na-404" value="&lt;font style=&quot;font-size: 36px;&quot;&gt;Reports&lt;/font&gt;" style="text;html=1;align=center;verticalAlign=middle;whiteSpace=wrap;rounded=0;" vertex="1" parent="Yi_f9LWQrYLCisY741Na-399">
          <mxGeometry x="410" y="190" width="210" height="80" as="geometry" />
        </mxCell>
        <mxCell id="Yi_f9LWQrYLCisY741Na-405" value="" style="shape=actor;whiteSpace=wrap;html=1;" vertex="1" parent="Yi_f9LWQrYLCisY741Na-399">
          <mxGeometry x="990" y="122.5" width="40" height="50" as="geometry" />
        </mxCell>
        <mxCell id="Yi_f9LWQrYLCisY741Na-406" value="" style="swimlane;strokeColor=#999999;swimlaneFillColor=#FFFFFF;fillColor=#ffffff;fontColor=#666666;fontStyle=0;childLayout=stackLayout;horizontal=1;startSize=0;horizontalStack=0;resizeParent=1;resizeParentMax=0;resizeLast=0;collapsible=0;marginBottom=0;whiteSpace=wrap;html=1;" vertex="1" parent="Yi_f9LWQrYLCisY741Na-399">
          <mxGeometry x="70" y="280" width="710" height="90" as="geometry" />
        </mxCell>
        <mxCell id="Yi_f9LWQrYLCisY741Na-407" value="ID report" style="text;strokeColor=none;align=left;verticalAlign=middle;spacingLeft=27;spacingRight=10;overflow=hidden;points=[[0,0.5],[1,0.5]];portConstraint=eastwest;rotatable=0;whiteSpace=wrap;html=1;fillColor=none;fontColor=inherit;fontSize=17;" vertex="1" parent="Yi_f9LWQrYLCisY741Na-406">
          <mxGeometry width="710" height="30" as="geometry" />
        </mxCell>
        <mxCell id="Yi_f9LWQrYLCisY741Na-408" value="" style="shape=ellipse;resizable=0;fillColor=#EEEEEE;strokeColor=#999999;gradientColor=#cccccc;html=1;" vertex="1" parent="Yi_f9LWQrYLCisY741Na-407">
          <mxGeometry y="0.5" width="15" height="15" relative="1" as="geometry">
            <mxPoint x="8" y="-7.5" as="offset" />
          </mxGeometry>
        </mxCell>
        <mxCell id="Yi_f9LWQrYLCisY741Na-409" value="Status" style="shape=ellipse;fillColor=#eeeeee;strokeColor=#999999;gradientColor=#cccccc;html=1;align=left;spacingLeft=4;fontSize=17;fontColor=#666666;labelPosition=right;shadow=0;" vertex="1" parent="Yi_f9LWQrYLCisY741Na-407">
          <mxGeometry x="550" y="7.5" width="15" height="15" as="geometry" />
        </mxCell>
        <mxCell id="Yi_f9LWQrYLCisY741Na-410" value="Type" style="shape=ellipse;fillColor=#eeeeee;strokeColor=#999999;gradientColor=#cccccc;html=1;align=left;spacingLeft=4;fontSize=17;fontColor=#666666;labelPosition=right;shadow=0;" vertex="1" parent="Yi_f9LWQrYLCisY741Na-407">
          <mxGeometry x="400" y="7.5" width="15" height="15" as="geometry" />
        </mxCell>
        <mxCell id="Yi_f9LWQrYLCisY741Na-412" value="View" style="shape=rectangle;strokeColor=none;fillColor=none;linkText=;fontSize=17;fontColor=#0000ff;fontStyle=4;html=1;align=center;" vertex="1" parent="Yi_f9LWQrYLCisY741Na-407">
          <mxGeometry x="70" width="150" height="30" as="geometry" />
        </mxCell>
        <mxCell id="Yi_f9LWQrYLCisY741Na-413" value="00000" style="text;strokeColor=none;align=left;verticalAlign=middle;spacingLeft=27;spacingRight=10;overflow=hidden;points=[[0,0.5],[1,0.5]];portConstraint=eastwest;rotatable=0;whiteSpace=wrap;html=1;rSize=5;fillColor=none;fontColor=inherit;fontSize=17;" vertex="1" parent="Yi_f9LWQrYLCisY741Na-406">
          <mxGeometry y="30" width="710" height="30" as="geometry" />
        </mxCell>
        <mxCell id="Yi_f9LWQrYLCisY741Na-414" value="" style="shape=ellipse;resizable=0;fillColor=#EEEEEE;strokeColor=#999999;gradientColor=#cccccc;html=1;" vertex="1" parent="Yi_f9LWQrYLCisY741Na-413">
          <mxGeometry y="0.5" width="15" height="15" relative="1" as="geometry">
            <mxPoint x="8" y="-7.5" as="offset" />
          </mxGeometry>
        </mxCell>
        <mxCell id="Yi_f9LWQrYLCisY741Na-416" value="Concluded" style="shape=ellipse;fillColor=#00CC00;strokeColor=#999999;gradientColor=#cccccc;html=1;align=left;spacingLeft=4;fontSize=17;fontColor=#666666;labelPosition=right;shadow=0;" vertex="1" parent="Yi_f9LWQrYLCisY741Na-413">
          <mxGeometry x="550" y="7.5" width="15" height="15" as="geometry" />
        </mxCell>
        <mxCell id="Yi_f9LWQrYLCisY741Na-417" value="View" style="shape=rectangle;strokeColor=none;fillColor=none;linkText=;fontSize=17;fontColor=#0000ff;fontStyle=4;html=1;align=center;" vertex="1" parent="Yi_f9LWQrYLCisY741Na-413">
          <mxGeometry x="70" width="150" height="30" as="geometry" />
        </mxCell>
        <mxCell id="Yi_f9LWQrYLCisY741Na-418" value="Accident" style="shape=ellipse;fillColor=#CC0000;strokeColor=#999999;gradientColor=#cccccc;html=1;align=left;spacingLeft=4;fontSize=17;fontColor=#666666;labelPosition=right;shadow=0;" vertex="1" parent="Yi_f9LWQrYLCisY741Na-413">
          <mxGeometry x="400" y="7.5" width="15" height="15" as="geometry" />
        </mxCell>
        <mxCell id="Yi_f9LWQrYLCisY741Na-444" value="" style="endArrow=classic;html=1;rounded=0;" edge="1" parent="Yi_f9LWQrYLCisY741Na-413">
          <mxGeometry width="50" height="50" relative="1" as="geometry">
            <mxPoint x="150" y="57.5" as="sourcePoint" />
            <mxPoint x="150" y="230" as="targetPoint" />
          </mxGeometry>
        </mxCell>
        <mxCell id="Yi_f9LWQrYLCisY741Na-419" value="00001" style="text;strokeColor=none;align=left;verticalAlign=middle;spacingLeft=27;spacingRight=10;overflow=hidden;points=[[0,0.5],[1,0.5]];portConstraint=eastwest;rotatable=0;whiteSpace=wrap;html=1;rSize=5;fillColor=none;fontColor=#008CFF;fontSize=17;" vertex="1" parent="Yi_f9LWQrYLCisY741Na-406">
          <mxGeometry y="60" width="710" height="30" as="geometry" />
        </mxCell>
        <mxCell id="Yi_f9LWQrYLCisY741Na-420" value="" style="shape=ellipse;resizable=0;fillColor=#AAAAAA;gradientColor=#666666;strokeColor=#444444;html=1;" vertex="1" parent="Yi_f9LWQrYLCisY741Na-419">
          <mxGeometry y="0.5" width="15" height="15" relative="1" as="geometry">
            <mxPoint x="8" y="-7.5" as="offset" />
          </mxGeometry>
        </mxCell>
        <mxCell id="Yi_f9LWQrYLCisY741Na-421" value="" style="shape=ellipse;resizable=0;fillColor=#444444;strokeColor=none;html=1;" vertex="1" parent="Yi_f9LWQrYLCisY741Na-420">
          <mxGeometry x="0.2" y="0.2" width="9" height="9" relative="1" as="geometry" />
        </mxCell>
        <mxCell id="Yi_f9LWQrYLCisY741Na-423" value="Awaiting review" style="shape=ellipse;fillColor=#FFFF00;strokeColor=#999999;gradientColor=#cccccc;html=1;align=left;spacingLeft=4;fontSize=17;fontColor=#666666;labelPosition=right;shadow=0;" vertex="1" parent="Yi_f9LWQrYLCisY741Na-419">
          <mxGeometry x="550" y="7.5" width="15" height="15" as="geometry" />
        </mxCell>
        <mxCell id="Yi_f9LWQrYLCisY741Na-424" value="View" style="shape=rectangle;strokeColor=none;fillColor=none;linkText=;fontSize=17;fontColor=#0000ff;fontStyle=4;html=1;align=center;" vertex="1" parent="Yi_f9LWQrYLCisY741Na-419">
          <mxGeometry x="70" width="150" height="30" as="geometry" />
        </mxCell>
        <mxCell id="Yi_f9LWQrYLCisY741Na-425" value="Payment" style="shape=ellipse;fillColor=#0008EE;strokeColor=#999999;gradientColor=#cccccc;html=1;align=left;spacingLeft=4;fontSize=17;fontColor=#666666;labelPosition=right;shadow=0;" vertex="1" parent="Yi_f9LWQrYLCisY741Na-419">
          <mxGeometry x="400" y="7.5" width="15" height="15" as="geometry" />
        </mxCell>
        <mxCell id="Yi_f9LWQrYLCisY741Na-437" value="&lt;span style=&quot;font-size: 24px;&quot;&gt;La schermata parte dal profilo dell&#39;utente&lt;/span&gt;" style="text;html=1;align=center;verticalAlign=middle;whiteSpace=wrap;rounded=0;" vertex="1" parent="1">
          <mxGeometry x="360" y="2640" width="420" height="110" as="geometry" />
        </mxCell>
        <mxCell id="Yi_f9LWQrYLCisY741Na-443" value="" style="endArrow=classic;html=1;rounded=0;" edge="1" parent="1">
          <mxGeometry width="50" height="50" relative="1" as="geometry">
            <mxPoint x="600" y="3090" as="sourcePoint" />
            <mxPoint x="650" y="3040" as="targetPoint" />
          </mxGeometry>
        </mxCell>
      </root>
    </mxGraphModel>
  </diagram>
</mxfile>
